<svg width="36" height="37" viewBox="0 0 36 37" fill="none" xmlns="http://www.w3.org/2000/svg">
<g clip-path="url(#clip0_7304_627)">
<path d="M23.3334 28.1453C24.0039 28.1453 24.647 27.8795 25.1219 27.4062C25.5968 26.9328 25.8646 26.2905 25.8667 25.62C25.8663 25.2683 25.7964 24.9201 25.6612 24.5955C25.526 24.2708 25.3281 23.976 25.0787 23.728L23.4 22.048V17.0573C23.3999 16.086 23.2083 15.1243 22.8362 14.2271C22.4642 13.3299 21.9189 12.5148 21.2317 11.8284C20.5444 11.1421 19.7287 10.5978 18.831 10.2269C17.9333 9.85599 16.9713 9.66561 16 9.66666C14.0405 9.66772 12.1615 10.4468 10.7762 11.8327C9.3908 13.2185 8.6124 15.0978 8.61204 17.0573V22.044L6.93338 23.724C6.68385 23.972 6.48569 24.2667 6.35025 24.5914C6.2148 24.916 6.14473 25.2642 6.14404 25.616C6.14616 26.2865 6.414 26.9288 6.88886 27.4022C7.36372 27.8755 8.00688 28.1413 8.67738 28.1413L23.3334 28.1453Z" stroke="#1C1C1C" stroke-width="1.5" stroke-linecap="round" stroke-linejoin="round"/>
<path d="M14.028 32.3333H17.9706" stroke="#1C1C1C" stroke-width="1.5" stroke-linecap="round" stroke-linejoin="round"/>
</g>
<rect x="16" width="20" height="20" rx="10" fill="#0500FF"/>
<path d="M22.4411 14.1598C21.8303 14.1574 21.3047 14.0071 20.8643 13.7088C20.4264 13.4105 20.089 12.9785 19.8523 12.4126C19.6179 11.8468 19.5019 11.1662 19.5043 10.3707C19.5043 9.57765 19.6214 8.90175 19.8558 8.34304C20.0926 7.78433 20.4299 7.35937 20.8679 7.06818C21.3082 6.77462 21.8326 6.62784 22.4411 6.62784C23.0495 6.62784 23.5727 6.77462 24.0107 7.06818C24.451 7.36174 24.7895 7.78788 25.0263 8.34659C25.263 8.90294 25.3802 9.57765 25.3778 10.3707C25.3778 11.1686 25.2595 11.8504 25.0227 12.4162C24.7884 12.982 24.4522 13.4141 24.0142 13.7124C23.5762 14.0107 23.0518 14.1598 22.4411 14.1598ZM22.4411 12.8849C22.8577 12.8849 23.1903 12.6754 23.4389 12.2564C23.6875 11.8374 23.8106 11.2088 23.8082 10.3707C23.8082 9.81913 23.7514 9.35985 23.6378 8.9929C23.5265 8.62595 23.3679 8.35014 23.1619 8.16548C22.9583 7.98082 22.718 7.88849 22.4411 7.88849C22.0268 7.88849 21.6953 8.09564 21.4467 8.50994C21.1982 8.92424 21.0727 9.54451 21.0703 10.3707C21.0703 10.9295 21.1259 11.3958 21.2372 11.7699C21.3509 12.1416 21.5107 12.4209 21.7166 12.608C21.9226 12.7926 22.1641 12.8849 22.4411 12.8849ZM26.4743 14V12.892L29.063 10.495C29.2832 10.282 29.4679 10.0902 29.617 9.91974C29.7685 9.74929 29.8833 9.58239 29.9615 9.41903C30.0396 9.25331 30.0787 9.07457 30.0787 8.88281C30.0787 8.66974 30.0301 8.48627 29.9331 8.33239C29.836 8.17614 29.7034 8.05658 29.5353 7.97372C29.3672 7.88849 29.1767 7.84588 28.9636 7.84588C28.7411 7.84588 28.5469 7.89086 28.3812 7.98082C28.2155 8.07079 28.0877 8.19981 27.9977 8.3679C27.9077 8.53598 27.8627 8.73603 27.8627 8.96804H26.4032C26.4032 8.49219 26.5109 8.07907 26.7264 7.72869C26.9418 7.37831 27.2437 7.10724 27.6319 6.91548C28.0202 6.72372 28.4676 6.62784 28.9743 6.62784C29.4951 6.62784 29.9484 6.72017 30.3343 6.90483C30.7226 7.08712 31.0244 7.34044 31.2399 7.66477C31.4553 7.98911 31.563 8.3608 31.563 8.77983C31.563 9.05445 31.5086 9.32552 31.3997 9.59304C31.2931 9.86056 31.1026 10.1577 30.8279 10.4844C30.5533 10.8087 30.1663 11.1982 29.6667 11.6527L28.6049 12.6932V12.7429H31.6589V14H26.4743Z" fill="white"/>
<defs>
<clipPath id="clip0_7304_627">
<rect width="32" height="32" fill="white" transform="translate(0 5)"/>
</clipPath>
</defs>
</svg>
